<svg xmlns="http://www.w3.org/2000/svg" xmlns:xlink="http://www.w3.org/1999/xlink" width="415.54" height="66.05" viewBox="0 0 415.54 66.05"><defs><linearGradient id="a" x1="22.78" y1="61.08" x2="82.62" y2="16.2" gradientUnits="userSpaceOnUse"><stop offset="0" stop-color="#00a551"/><stop offset="1" stop-color="#00adee"/></linearGradient></defs><text transform="translate(99.48 59.72) scale(1.07 1)" font-size="17.77" fill="#b6cec9" font-family="OpenSans-Semibold, Open Sans" font-weight="600" letter-spacing="0.05em">Solving issues with innovation.</text><path d="M97.83,42.9l8.76-25.11h7.06l8.77,25.11H116.6l-1.77-5.26h-9.52l-1.74,5.26Zm8.8-9.77h6.87l-3.43-11Z" fill="#fff"/><path d="M124.53,42.9V17.79h11.56a12.74,12.74,0,0,1,3.1.35,6.51,6.51,0,0,1,2.53,1.24,5.77,5.77,0,0,1,1.71,2.44,10.88,10.88,0,0,1,.63,4,10.12,10.12,0,0,1-.38,3,6.09,6.09,0,0,1-1,2A5.39,5.39,0,0,1,141.26,32a9.25,9.25,0,0,1-1.62.78l5.21,10.08h-5.7l-4.5-9.3h-1l-1.19,0h-1.21c-.41,0-.77,0-1.1,0V42.9Zm5.59-13.34h5a4.82,4.82,0,0,0,1.36-.17,2.49,2.49,0,0,0,1.05-.59,2.6,2.6,0,0,0,.7-1.14,5.49,5.49,0,0,0,.25-1.83,5.19,5.19,0,0,0-.25-1.75,2.39,2.39,0,0,0-.7-1.08,2.52,2.52,0,0,0-1.05-.55,5.72,5.72,0,0,0-1.36-.15h-5Z" fill="#fff"/><path d="M156.67,43.11a16.47,16.47,0,0,1-4.32-.51,6.73,6.73,0,0,1-3.17-1.87,8.65,8.65,0,0,1-2-3.88,26.81,26.81,0,0,1-.66-6.57,24.07,24.07,0,0,1,.7-6.4,9,9,0,0,1,2-3.87,7,7,0,0,1,3.21-1.92,15.53,15.53,0,0,1,4.27-.54,32.53,32.53,0,0,1,3.53.18c1.1.13,2.08.28,3,.45a16.19,16.19,0,0,1,2.22.56v3.9q-.67-.13-1.83-.27c-.77-.09-1.64-.17-2.62-.22s-2-.09-3.1-.09a10,10,0,0,0-2.7.32,3.42,3.42,0,0,0-1.78,1.19,6.15,6.15,0,0,0-1,2.5,23,23,0,0,0-.32,4.24,25.83,25.83,0,0,0,.28,4.14,6.15,6.15,0,0,0,.93,2.53,3.35,3.35,0,0,0,1.76,1.26,9.63,9.63,0,0,0,2.81.35c1.91,0,3.47,0,4.66-.1s2.16-.15,2.89-.24v3.87a18.64,18.64,0,0,1-2.34.53c-.88.15-1.85.26-2.91.34S158,43.11,156.67,43.11Z" fill="#fff"/><path d="M168.46,42.9V17.79h5.59V28.24h10.53V17.79h5.63V42.9h-5.63V32.75H174.05V42.9Z" fill="#fff"/><path d="M200.86,43.07a16.5,16.5,0,0,1-2.07-.15,6.7,6.7,0,0,1-2.25-.7,4.5,4.5,0,0,1-1.78-1.64,5.72,5.72,0,0,1-.7-3v-14a6.09,6.09,0,0,1,.57-2.78A4.61,4.61,0,0,1,196.14,19a6.16,6.16,0,0,1,2.08-.91,9.57,9.57,0,0,1,2.23-.27c1.89,0,3.55,0,5,.06s2.75.1,3.91.16,2.22.13,3.17.22v4.21H202.11a2.89,2.89,0,0,0-1.81.5,1.89,1.89,0,0,0-.65,1.57v3.63l11.07.27v4l-11.07.27v3.46a2.56,2.56,0,0,0,.32,1.38,1.71,1.71,0,0,0,.87.68,3.71,3.71,0,0,0,1.16.18h10.53v4.21c-1.1.12-2.33.21-3.68.28l-4.08.17C203.4,43.05,202.1,43.07,200.86,43.07Z" fill="#fff"/><path d="M215.67,42.9V17.79h11.55a12.74,12.74,0,0,1,3.1.35,6.45,6.45,0,0,1,2.53,1.24,5.88,5.88,0,0,1,1.72,2.44,10.9,10.9,0,0,1,.62,4,10.14,10.14,0,0,1-.37,3,6.1,6.1,0,0,1-1,2A5.2,5.2,0,0,1,232.4,32a9,9,0,0,1-1.63.78L236,42.9h-5.71l-4.49-9.3h-1l-1.19,0h-1.21c-.4,0-.77,0-1.09,0V42.9Zm5.59-13.34h5a4.73,4.73,0,0,0,1.36-.17,2.52,2.52,0,0,0,1.06-.59,2.8,2.8,0,0,0,.7-1.14,5.8,5.8,0,0,0,.24-1.83,5.47,5.47,0,0,0-.24-1.75,2.43,2.43,0,0,0-1.76-1.63,5.6,5.6,0,0,0-1.36-.15h-5Z" fill="#fff"/><path d="M255.13,43.07a9.11,9.11,0,0,1-4.32-.9,6.38,6.38,0,0,1-2.62-2.58,12.27,12.27,0,0,1-1.33-4,33.23,33.23,0,0,1-.37-5.23,30.11,30.11,0,0,1,.43-5.39,10.4,10.4,0,0,1,1.55-4,7,7,0,0,1,3.13-2.52,13.47,13.47,0,0,1,5.2-.86c1.28,0,2.46,0,3.53.13s2.08.22,3,.39,1.91.37,2.87.6v3.87c-.53-.07-1.23-.14-2.12-.21s-1.86-.13-2.94-.18-2.21-.09-3.36-.09a6.9,6.9,0,0,0-3.61.77,4,4,0,0,0-1.68,2.58,21.55,21.55,0,0,0-.45,5,27.16,27.16,0,0,0,.24,4,6.62,6.62,0,0,0,.81,2.47,3.09,3.09,0,0,0,1.5,1.25,6.27,6.27,0,0,0,2.28.36,17.86,17.86,0,0,0,3-.24q1.41-.24,2.28-.48V32.86h-5v-4c.53-.06,1.15-.12,1.89-.16s1.49-.09,2.28-.12,1.55-.05,2.28-.05h2.18c.64,0,1.22,0,1.75.09V42.9h-4.19l-.75-1.69a21.5,21.5,0,0,1-3.1,1.22A14.12,14.12,0,0,1,255.13,43.07Z" fill="#fff"/><path d="M269.64,42.9l8.76-25.11h7.06l8.76,25.11h-5.81l-1.78-5.26h-9.51l-1.74,5.26Zm8.8-9.77h6.87l-3.44-11Z" fill="#fff"/><path d="M300.31,42.9V22.3h-7.67V17.79h21V22.3h-7.7V42.9Z" fill="#fff"/><path d="M322.1,43.07a16.51,16.51,0,0,1-2.08-.15,6.77,6.77,0,0,1-2.25-.7A4.55,4.55,0,0,1,316,40.58a5.63,5.63,0,0,1-.7-3v-14a6.09,6.09,0,0,1,.57-2.78A4.52,4.52,0,0,1,317.38,19a6.2,6.2,0,0,1,2.07-.91,9.64,9.64,0,0,1,2.23-.27q2.83,0,5,.06c1.44,0,2.75.1,3.91.16s2.21.13,3.17.22v4.21H323.34a2.91,2.91,0,0,0-1.81.5,1.89,1.89,0,0,0-.64,1.57v3.63l11.07.27v4l-11.07.27v3.46a2.56,2.56,0,0,0,.32,1.38,1.67,1.67,0,0,0,.87.68,3.64,3.64,0,0,0,1.15.18h10.54v4.21c-1.11.12-2.34.21-3.68.28L326,43C324.63,43.05,323.33,43.07,322.1,43.07Z" fill="#fff"/><path d="M341.81,42.9l-6.68-25.11h5.78L345.4,35.5l5.25-17.71h5.14L361,35.5l4.49-17.71h5.78L364.59,42.9h-5.71l-5.66-17.72-5.7,17.72Z" fill="#fff"/><path d="M370.29,42.9l8.76-25.11h7.07l8.76,25.11h-5.82l-1.77-5.26h-9.52L376,42.9Zm8.8-9.77H386l-3.44-11Z" fill="#fff"/><path d="M401.56,42.9V35.3l-8.42-17.51H399l5.51,12.38L410,17.79h5.59L407.15,35.3v7.6Z" fill="#fff"/><path d="M41.68,16.2A110.4,110.4,0,0,0,17.59,35.09a52,52,0,0,0-5.86-3.73,107.88,107.88,0,0,1,30-23,107.93,107.93,0,0,1,29.92,23,53.81,53.81,0,0,0-5.86,3.73A111.11,111.11,0,0,0,41.68,16.2Zm0-16.2A111.81,111.81,0,0,0,0,34.19c12.27,4.74,21.84,12.47,28,24.39H10.85A50.83,50.83,0,0,1,17,47.41a30.54,30.54,0,0,0-5.67-4.79C6.05,49.89,3.17,57.34.92,66.05h38C35.52,56,31.1,47.49,23.23,39.88a98.87,98.87,0,0,1,18.45-15,99.46,99.46,0,0,1,18.42,15C52.23,47.49,47.81,56,44.42,66.05h38C80.16,57.34,77.29,49.89,72,42.62a30.52,30.52,0,0,0-5.66,4.79,50.8,50.8,0,0,1,6.11,11.17H55.34c6.16-11.92,15.72-19.65,28-24.39A112,112,0,0,0,41.68,0Z" fill="url(#a)"/></svg>