<?xml version="1.0" encoding="utf-8"?>
<!-- Generator: Adobe Illustrator 25.1.0, SVG Export Plug-In . SVG Version: 6.00 Build 0)  -->
<svg version="1.1" baseProfile="tiny" xmlns="http://www.w3.org/2000/svg" xmlns:xlink="http://www.w3.org/1999/xlink" x="0px"
	 y="0px" viewBox="0 0 415.54 66.05" overflow="visible" xml:space="preserve">
<g id="Livello_1" display="none">
	<path display="inline" fill="#47B2E4" d="M17.89,35.19c0.49,0.66,1.15,1.18,1.9,1.52h2l1.57-1.04l0,0c1.01-1.24,1.06-3,0.14-4.31
		c-0.34-0.41-0.6-0.88-0.75-1.39c-0.43-0.34-0.65-0.89-0.56-1.44l0,0c-0.01-0.05-0.01-0.11,0-0.16c-0.81-1.72-0.81-3.7,0-5.42l0,0
		c0.49-2.14,1.75-4.03,3.54-5.32c1.06-1.06,2.47-1.71,3.97-1.81c1.41-0.56,2.98-0.56,4.38,0c1.12,0.05,2.18,0.49,3,1.25l0,0
		l0.85,0.44l0,0c0.51,0.19,0.93,0.57,1.16,1.06l0,0c0.15,0.12,0.3,0.25,0.42,0.4c2.56,3.61,5.13,7.23,7.69,10.86
		c2.34,3.3,4.61,6.65,7,9.91c1,1.51,3.04,1.92,4.55,0.92c0.05-0.04,0.1-0.07,0.16-0.11c1.52-1.06,1.9-3.16,0.84-4.68
		c-0.06-0.08-0.12-0.17-0.19-0.24c-0.96-1.25-1.81-2.62-2.75-3.92c-3.57-5-7-9.99-10.54-14.99c-2.36-3.27-3.06-6.7-1.49-10.58
		c1.3-3.34,4.37-5.67,7.94-6.01c3.62-0.6,7.27,0.93,9.38,3.93c2.5,3.42,4.91,7,7.36,10.49l13.02,18.56
		c3.75,5.27,7.37,10.57,11.12,15.81c1.9,2.65,3.56,5.33,3.12,8.74c-0.31,3.63-2.6,6.78-5.95,8.21c-2.57,1.32-5.62,1.32-8.19,0l0,0
		l-1.15-0.61c-0.59-0.12-1.09-0.48-1.4-1l0,0c-0.21-0.15-0.41-0.32-0.6-0.5c-1.29-1.53-2.48-3.14-3.55-4.83
		C73.08,54.98,70.3,51,67.53,47c-1.15-1.54-3.32-1.87-4.88-0.75c-1.42,1.13-1.73,3.16-0.7,4.66c0.77,1.14,1.31,2.41,1.61,3.75
		c1.02,4.53-1.77,9.86-5.95,11.24c-0.48,0.47-1.15,0.68-1.81,0.59c-1.35,0.54-2.86,0.54-4.21,0h-0.1h-0.07
		c-0.66,0.08-1.33-0.13-1.82-0.57l0,0c-1.79-0.7-3.31-1.96-4.33-3.59c-0.91-0.94-1.65-2.02-2.2-3.2l0,0L42.5,58.3l0,0
		c-0.6-0.42-1.04-1.03-1.25-1.74l0,0c-0.97-1.36-1.97-2.71-2.94-4.07c-2.39-3.37-4.73-6.76-7.13-10.11c-0.83-1.2-2.4-1.66-3.75-1.1
		c-1.66,0.59-2.34,1.75-2.29,3.91c0.48,0.69,0.9,1.42,1.25,2.19c0.55,0.41,0.95,0.97,1.16,1.62l0,0c0.42,0.59,0.84,1.25,1.25,1.77
		c3.26,4.46,2.28,10.71-2.17,13.96C26,65.21,25.32,65.6,24.6,65.9c-0.48,0.47-1.15,0.68-1.81,0.59c-1.35,0.55-2.87,0.55-4.22,0
		h-0.07h-0.07c-0.67,0.11-1.34-0.11-1.82-0.59l0,0c-1.83-0.69-3.39-1.95-4.45-3.6C8.58,57.3,5.04,52.25,1.52,47.17
		c-2.48-3.19-2.71-7.57-0.59-11.01c2.75-4.85,8.92-6.56,13.78-3.8C15.96,33.07,17.04,34.04,17.89,35.19z"/>
	<path display="inline" fill="#FFFFFF" d="M129.5,33.89c-0.1,2.05,0.69,4.04,2.16,5.46c1.44,1.35,3.34,2.07,5.31,2.02
		c1.66,0.02,3.3-0.37,4.78-1.12c1.35-0.65,2.49-1.68,3.26-2.97v7.5c-1.02,0.89-2.23,1.55-3.54,1.94c-1.62,0.49-3.31,0.73-5,0.7
		c-2.57,0.05-5.12-0.53-7.42-1.69c-2.12-1.07-3.9-2.72-5.15-4.75c-1.28-2.13-1.93-4.57-1.89-7.06c-0.06-2.49,0.6-4.95,1.89-7.08
		c1.25-2.02,3.03-3.65,5.15-4.72c3.88-1.85,8.3-2.19,12.42-0.96c1.28,0.39,2.48,1.02,3.54,1.85v7.5c-0.78-1.31-1.95-2.36-3.35-2.99
		c-1.46-0.72-3.07-1.09-4.7-1.1c-1.98-0.04-3.9,0.72-5.31,2.11C130.22,29.93,129.44,31.88,129.5,33.89z"/>
	<path display="inline" fill="#FFFFFF" d="M149.63,33.89c-0.06-2.49,0.6-4.95,1.89-7.08c1.24-2.01,3.01-3.64,5.11-4.72
		c4.63-2.25,10.04-2.25,14.68,0c2.11,1.08,3.88,2.71,5.12,4.72c1.29,2.13,1.94,4.59,1.89,7.08c0.05,2.48-0.61,4.93-1.89,7.06
		c-1.24,2.02-3.01,3.67-5.12,4.75c-4.63,2.25-10.04,2.25-14.68,0c-2.11-1.08-3.88-2.72-5.11-4.75
		C150.23,38.82,149.58,36.38,149.63,33.89z M157.12,33.89c-0.09,1.97,0.63,3.89,2,5.31c1.27,1.31,3.03,2.03,4.86,2
		c1.84,0.03,3.61-0.69,4.9-2c1.38-1.41,2.11-3.34,2.02-5.31c0.09-1.98-0.65-3.91-2.02-5.33c-1.28-1.32-3.05-2.06-4.9-2.02
		c-1.83-0.03-3.59,0.7-4.86,2.02c-1.37,1.43-2.09,3.36-2.01,5.33H157.12z"/>
	<path display="inline" fill="#FFFFFF" d="M182,33.89c-0.08-2.56,0.53-5.09,1.75-7.33c1.08-1.92,2.66-3.51,4.58-4.58
		c1.86-1.04,3.96-1.58,6.1-1.57c3.57-0.12,6.94,1.68,8.82,4.72V2.98h7.35v43.85h-7.31v-4.16c-1.88,3.04-5.25,4.84-8.82,4.72
		c-2.13,0.01-4.23-0.53-6.1-1.57c-1.93-1.06-3.53-2.64-4.62-4.56C182.53,39,181.92,36.46,182,33.89z M189.6,33.89
		c-0.1,2.03,0.64,4,2.05,5.46c1.29,1.32,3.07,2.05,4.92,2.02c1.11-0.01,2.2-0.32,3.15-0.9c1.02-0.62,1.88-1.47,2.5-2.5
		c0.71-1.22,1.06-2.61,1.01-4.02c0.04-1.41-0.31-2.8-1.01-4.02c-0.62-1.02-1.47-1.88-2.5-2.5c-0.95-0.58-2.04-0.89-3.15-0.9
		c-1.84-0.03-3.62,0.69-4.92,2C190.26,29.97,189.52,31.9,189.6,33.89z"/>
	<path display="inline" fill="#FFFFFF" d="M232.31,28.61c-0.44-0.41-0.93-0.77-1.46-1.06c-0.58-0.28-1.21-0.41-1.85-0.39
		c-1.26-0.07-2.46,0.54-3.15,1.6c-0.78,1.33-1.15,2.87-1.06,4.41v13.65h-7.2V20.97h7.2v3.15c0.73-1.1,1.69-2.04,2.81-2.75
		c1.01-0.65,2.18-1,3.37-1.01c0.91-0.01,1.82,0.16,2.67,0.5c0.81,0.31,1.51,0.83,2.05,1.51L232.31,28.61z"/>
	<path display="inline" fill="#FFFFFF" d="M236.92,33.89c-0.06-2.49,0.6-4.95,1.89-7.08c1.24-2.01,3.01-3.64,5.11-4.72
		c4.63-2.25,10.04-2.25,14.68,0c2.11,1.08,3.88,2.71,5.12,4.72c1.27,2.14,1.91,4.59,1.85,7.08c0.05,2.48-0.61,4.93-1.89,7.06
		c-1.24,2.02-3.01,3.67-5.12,4.75c-4.63,2.25-10.04,2.25-14.68,0c-2.11-1.08-3.88-2.72-5.11-4.75
		C237.5,38.82,236.86,36.37,236.92,33.89z M244.41,33.89c-0.09,1.97,0.63,3.89,2,5.31c1.27,1.31,3.03,2.03,4.86,2
		c1.84,0.03,3.61-0.69,4.9-2c1.38-1.41,2.11-3.34,2.02-5.31c0.09-1.98-0.65-3.91-2.02-5.33c-1.28-1.32-3.05-2.06-4.9-2.02
		c-1.83-0.03-3.59,0.7-4.86,2.02c-1.37,1.43-2.09,3.36-2.01,5.33H244.41z"/>
	<path display="inline" fill="#FFFFFF" d="M278.18,59.19h-7.31V20.97h7.31v4.27c0.87-1.55,2.13-2.84,3.65-3.75
		c1.57-0.9,3.36-1.36,5.17-1.32c2.13-0.01,4.23,0.53,6.1,1.57c1.93,1.09,3.53,2.69,4.61,4.63c1.24,2.3,1.86,4.88,1.77,7.5
		c0.08,2.61-0.53,5.2-1.77,7.5c-1.08,1.94-2.68,3.54-4.61,4.63c-1.86,1.04-3.96,1.58-6.1,1.57c-1.82,0.04-3.62-0.42-5.2-1.32
		c-1.52-0.91-2.78-2.2-3.65-3.75v16.69H278.18z M291.92,33.89c0.13-2-0.64-3.95-2.09-5.33c-1.37-1.23-3.16-1.9-5-1.85
		c-1.06,0.02-2.1,0.29-3.04,0.8c-1.03,0.57-1.89,1.41-2.5,2.42c-0.71,1.2-1.06,2.57-1.01,3.96c-0.05,1.39,0.3,2.76,1.01,3.96
		c0.6,1.01,1.47,1.85,2.5,2.42c0.96,0.52,2.03,0.8,3.12,0.81c1.85,0.04,3.64-0.63,5-1.89c1.4-1.4,2.12-3.34,1.97-5.31H291.92z"/>
</g>
<g id="Layer_2">
	<g>
		<g>
			
				<text transform="matrix(1.0728 0 0 1 99.4773 59.7211)" fill="#B6CEC9" font-family="'OpenSans-Semibold'" font-size="17.7744px">S</text>
			
				<text transform="matrix(1.0728 0 0 1 110.9148 59.7211)" fill="#B6CEC9" font-family="'OpenSans-Semibold'" font-size="17.7744px">o</text>
			
				<text transform="matrix(1.0728 0 0 1 123.5163 59.7211)" fill="#B6CEC9" font-family="'OpenSans-Semibold'" font-size="17.7744px">l</text>
			
				<text transform="matrix(1.0728 0 0 1 129.7863 59.7211)" fill="#B6CEC9" font-family="'OpenSans-Semibold'" font-size="17.7744px">v</text>
			
				<text transform="matrix(1.0728 0 0 1 140.9445 59.7211)" fill="#B6CEC9" font-family="'OpenSans-Semibold'" font-size="17.7744px">i</text>
			
				<text transform="matrix(1.0728 0 0 1 147.2146 59.7211)" fill="#B6CEC9" font-family="'OpenSans-Semibold'" font-size="17.7744px">n</text>
			
				<text transform="matrix(1.0728 0 0 1 160.2717 59.7211)" fill="#B6CEC9" font-family="'OpenSans-Semibold'" font-size="17.7744px">g</text>
			
				<text transform="matrix(1.0728 0 0 1 171.8303 59.7211)" fill="#B6CEC9" font-family="'OpenSans-Semibold'" font-size="17.7744px"> </text>
			
				<text transform="matrix(1.0728 0 0 1 177.7375 59.7211)" fill="#B6CEC9" font-family="'OpenSans-Semibold'" font-size="17.7744px">i</text>
			
				<text transform="matrix(1.0728 0 0 1 184.007 59.7211)" fill="#B6CEC9" font-family="'OpenSans-Semibold'" font-size="17.7744px">s</text>
			
				<text transform="matrix(1.0728 0 0 1 194.2434 59.7211)" fill="#B6CEC9" font-family="'OpenSans-Semibold'" font-size="17.7744px">s</text>
			
				<text transform="matrix(1.0728 0 0 1 204.4807 59.7211)" fill="#B6CEC9" font-family="'OpenSans-Semibold'" font-size="17.7744px">u</text>
			
				<text transform="matrix(1.0728 0 0 1 217.5383 59.7211)" fill="#B6CEC9" font-family="'OpenSans-Semibold'" font-size="17.7744px">e</text>
			
				<text transform="matrix(1.0728 0 0 1 229.4778 59.7211)" fill="#B6CEC9" font-family="'OpenSans-Semibold'" font-size="17.7744px">s</text>
			
				<text transform="matrix(1.0728 0 0 1 239.7151 59.7211)" fill="#B6CEC9" font-family="'OpenSans-Semibold'" font-size="17.7744px"> </text>
			
				<text transform="matrix(1.0728 0 0 1 245.6213 59.7211)" fill="#B6CEC9" font-family="'OpenSans-Semibold'" font-size="17.7744px">w</text>
			
				<text transform="matrix(1.0728 0 0 1 262.1516 59.7211)" fill="#B6CEC9" font-family="'OpenSans-Semibold'" font-size="17.7744px">i</text>
			
				<text transform="matrix(1.0728 0 0 1 268.4221 59.7211)" fill="#B6CEC9" font-family="'OpenSans-Semibold'" font-size="17.7744px">t</text>
			
				<text transform="matrix(1.0728 0 0 1 276.8703 59.7211)" fill="#B6CEC9" font-family="'OpenSans-Semibold'" font-size="17.7744px">h</text>
			
				<text transform="matrix(1.0728 0 0 1 289.9279 59.7211)" fill="#B6CEC9" font-family="'OpenSans-Semibold'" font-size="17.7744px"> </text>
			
				<text transform="matrix(1.0728 0 0 1 295.8352 59.7211)" fill="#B6CEC9" font-family="'OpenSans-Semibold'" font-size="17.7744px">i</text>
			
				<text transform="matrix(1.0728 0 0 1 302.1047 59.7211)" fill="#B6CEC9" font-family="'OpenSans-Semibold'" font-size="17.7744px">n</text>
			
				<text transform="matrix(1.0728 0 0 1 315.1623 59.7211)" fill="#B6CEC9" font-family="'OpenSans-Semibold'" font-size="17.7744px">n</text>
			
				<text transform="matrix(1.0728 0 0 1 328.2199 59.7211)" fill="#B6CEC9" font-family="'OpenSans-Semibold'" font-size="17.7744px">o</text>
			
				<text transform="matrix(1.0728 0 0 1 340.8215 59.7211)" fill="#B6CEC9" font-family="'OpenSans-Semibold'" font-size="17.7744px">v</text>
			
				<text transform="matrix(1.0728 0 0 1 351.9797 59.7211)" fill="#B6CEC9" font-family="'OpenSans-Semibold'" font-size="17.7744px">a</text>
			
				<text transform="matrix(1.0728 0 0 1 363.9944 59.7211)" fill="#B6CEC9" font-family="'OpenSans-Semibold'" font-size="17.7744px">t</text>
			
				<text transform="matrix(1.0728 0 0 1 372.4436 59.7211)" fill="#B6CEC9" font-family="'OpenSans-Semibold'" font-size="17.7744px">i</text>
			
				<text transform="matrix(1.0728 0 0 1 378.7131 59.7211)" fill="#B6CEC9" font-family="'OpenSans-Semibold'" font-size="17.7744px">o</text>
			
				<text transform="matrix(1.0728 0 0 1 391.3147 59.7211)" fill="#B6CEC9" font-family="'OpenSans-Semibold'" font-size="17.7744px">n</text>
			
				<text transform="matrix(1.0728 0 0 1 404.3723 59.7211)" fill="#B6CEC9" font-family="'OpenSans-Semibold'" font-size="17.7744px">.</text>
		</g>
		<g>
			<g>
				<g>
					<g>
						<path fill="#FFFFFF" d="M97.83,42.9l8.76-25.12h7.06l8.76,25.12h-5.82l-1.77-5.26h-9.52l-1.74,5.26H97.83z M106.63,33.13h6.87
							l-3.44-11.03L106.63,33.13z"/>
						<path fill="#FFFFFF" d="M124.53,42.9V17.79h11.56c1.11,0,2.14,0.12,3.1,0.36c0.96,0.24,1.8,0.65,2.53,1.24s1.3,1.4,1.72,2.44
							c0.42,1.04,0.62,2.38,0.62,4.01c0,1.15-0.13,2.14-0.38,2.95c-0.25,0.81-0.59,1.48-1,2c-0.42,0.52-0.89,0.94-1.42,1.26
							c-0.53,0.32-1.07,0.58-1.62,0.78l5.21,10.08h-5.7l-4.5-9.3c-0.3,0-0.65-0.01-1.04-0.02c-0.39-0.01-0.79-0.02-1.19-0.02
							s-0.81,0-1.21,0c-0.4,0-0.77-0.01-1.1-0.03v9.37H124.53z M130.12,29.56h4.99c0.5,0,0.96-0.06,1.36-0.17
							c0.4-0.11,0.75-0.31,1.06-0.59c0.3-0.28,0.54-0.66,0.7-1.14c0.16-0.48,0.25-1.09,0.25-1.83c0-0.7-0.08-1.28-0.25-1.75
							c-0.16-0.46-0.4-0.83-0.7-1.09c-0.3-0.26-0.65-0.44-1.06-0.54c-0.4-0.1-0.86-0.15-1.36-0.15h-4.99V29.56z"/>
						<path fill="#FFFFFF" d="M156.67,43.11c-1.64,0-3.08-0.17-4.32-0.51c-1.25-0.34-2.3-0.96-3.17-1.87
							c-0.87-0.9-1.52-2.2-1.96-3.89s-0.66-3.88-0.66-6.57c0-2.6,0.23-4.74,0.7-6.4c0.47-1.66,1.14-2.95,2.02-3.87
							c0.88-0.92,1.95-1.56,3.21-1.92c1.26-0.36,2.68-0.54,4.27-0.54c1.26,0,2.44,0.06,3.53,0.19c1.09,0.12,2.08,0.27,2.96,0.44
							c0.88,0.17,1.62,0.36,2.23,0.56v3.9c-0.45-0.09-1.06-0.18-1.83-0.27c-0.77-0.09-1.64-0.16-2.62-0.22
							c-0.98-0.06-2.01-0.08-3.1-0.08c-1.06,0-1.96,0.11-2.7,0.32c-0.74,0.22-1.33,0.61-1.77,1.19c-0.44,0.58-0.77,1.41-0.98,2.49
							c-0.21,1.09-0.32,2.5-0.32,4.24c0,1.67,0.09,3.06,0.28,4.14c0.19,1.09,0.5,1.93,0.93,2.53c0.43,0.6,1.01,1.02,1.76,1.26
							c0.74,0.24,1.68,0.36,2.81,0.36c1.91,0,3.47-0.03,4.66-0.1c1.2-0.07,2.16-0.15,2.89-0.24v3.87c-0.68,0.2-1.46,0.38-2.34,0.53
							c-0.88,0.15-1.85,0.26-2.91,0.34C159.17,43.07,157.98,43.11,156.67,43.11z"/>
						<path fill="#FFFFFF" d="M168.46,42.9V17.79h5.59v10.46h10.54V17.79h5.63V42.9h-5.63V32.75h-10.54V42.9H168.46z"/>
						<path fill="#FFFFFF" d="M200.86,43.07c-0.6,0-1.3-0.05-2.08-0.15c-0.78-0.1-1.53-0.33-2.25-0.7
							c-0.72-0.36-1.31-0.91-1.77-1.65c-0.47-0.74-0.7-1.75-0.7-3.04V23.52c0-1.11,0.19-2.04,0.57-2.78
							c0.38-0.75,0.88-1.33,1.51-1.77c0.63-0.43,1.32-0.73,2.08-0.92c0.76-0.18,1.5-0.27,2.23-0.27c1.89,0,3.56,0.02,5,0.07
							c1.45,0.05,2.75,0.1,3.91,0.15c1.16,0.06,2.21,0.13,3.17,0.22v4.21h-10.42c-0.78,0-1.38,0.17-1.81,0.51
							c-0.43,0.34-0.64,0.86-0.64,1.56v3.63l11.07,0.27v3.97l-11.07,0.27v3.46c0,0.59,0.11,1.05,0.32,1.38s0.5,0.55,0.87,0.68
							c0.37,0.12,0.75,0.19,1.15,0.19h10.54v4.21c-1.11,0.11-2.33,0.2-3.68,0.27c-1.35,0.07-2.71,0.12-4.08,0.17
							C203.4,43.05,202.1,43.07,200.86,43.07z"/>
						<path fill="#FFFFFF" d="M215.67,42.9V17.79h11.56c1.11,0,2.14,0.12,3.1,0.36c0.96,0.24,1.8,0.65,2.53,1.24s1.3,1.4,1.72,2.44
							c0.42,1.04,0.62,2.38,0.62,4.01c0,1.15-0.13,2.14-0.38,2.95c-0.25,0.81-0.59,1.48-1,2c-0.42,0.52-0.89,0.94-1.42,1.26
							c-0.53,0.32-1.07,0.58-1.62,0.78l5.21,10.08h-5.7l-4.5-9.3c-0.3,0-0.65-0.01-1.04-0.02c-0.39-0.01-0.79-0.02-1.19-0.02
							s-0.81,0-1.21,0c-0.4,0-0.77-0.01-1.1-0.03v9.37H215.67z M221.26,29.56h4.99c0.5,0,0.96-0.06,1.36-0.17
							c0.4-0.11,0.75-0.31,1.06-0.59c0.3-0.28,0.54-0.66,0.7-1.14c0.16-0.48,0.25-1.09,0.25-1.83c0-0.7-0.08-1.28-0.25-1.75
							c-0.16-0.46-0.4-0.83-0.7-1.09c-0.3-0.26-0.65-0.44-1.06-0.54c-0.4-0.1-0.86-0.15-1.36-0.15h-4.99V29.56z"/>
						<path fill="#FFFFFF" d="M255.13,43.07c-1.76,0-3.2-0.3-4.32-0.9c-1.12-0.6-2-1.46-2.62-2.58c-0.63-1.12-1.07-2.46-1.32-4.02
							s-0.38-3.3-0.38-5.23c0-2.01,0.14-3.81,0.43-5.4c0.29-1.58,0.81-2.92,1.55-4.02c0.74-1.1,1.79-1.94,3.13-2.51
							c1.35-0.58,3.08-0.87,5.19-0.87c1.28,0,2.46,0.05,3.53,0.14c1.07,0.09,2.08,0.22,3.04,0.39c0.96,0.17,1.91,0.37,2.87,0.59
							v3.87c-0.53-0.07-1.23-0.14-2.12-0.2c-0.88-0.07-1.86-0.13-2.95-0.19c-1.08-0.06-2.2-0.08-3.36-0.08
							c-1.59,0-2.79,0.25-3.61,0.76c-0.82,0.51-1.38,1.37-1.68,2.58c-0.3,1.21-0.45,2.87-0.45,4.97c0,1.63,0.08,2.96,0.25,4.01
							c0.16,1.04,0.43,1.86,0.81,2.46s0.88,1.02,1.49,1.26c0.62,0.24,1.38,0.36,2.29,0.36c1.03,0,2.02-0.08,2.96-0.24
							c0.94-0.16,1.71-0.32,2.29-0.47v-4.89h-5.02v-3.97c0.53-0.07,1.16-0.12,1.89-0.17c0.73-0.05,1.49-0.08,2.28-0.12
							c0.79-0.03,1.55-0.05,2.29-0.05c0.81,0,1.53,0.01,2.17,0.02c0.64,0.01,1.23,0.04,1.76,0.08V42.9h-4.19l-0.76-1.7
							c-0.73,0.38-1.76,0.79-3.1,1.22C258.14,42.86,256.7,43.07,255.13,43.07z"/>
						<path fill="#FFFFFF" d="M269.64,42.9l8.76-25.12h7.06l8.76,25.12h-5.82l-1.78-5.26h-9.52l-1.74,5.26H269.64z M278.44,33.13
							h6.87l-3.44-11.03L278.44,33.13z"/>
						<path fill="#FFFFFF" d="M300.31,42.9V22.3h-7.67v-4.51h20.96v4.51h-7.71v20.6H300.31z"/>
						<path fill="#FFFFFF" d="M322.1,43.07c-0.6,0-1.3-0.05-2.08-0.15c-0.78-0.1-1.53-0.33-2.25-0.7c-0.72-0.36-1.31-0.91-1.77-1.65
							c-0.47-0.74-0.7-1.75-0.7-3.04V23.52c0-1.11,0.19-2.04,0.57-2.78c0.38-0.75,0.88-1.33,1.51-1.77
							c0.63-0.43,1.32-0.73,2.08-0.92c0.76-0.18,1.5-0.27,2.23-0.27c1.89,0,3.56,0.02,5,0.07c1.45,0.05,2.75,0.1,3.91,0.15
							c1.16,0.06,2.21,0.13,3.17,0.22v4.21h-10.42c-0.78,0-1.38,0.17-1.81,0.51c-0.43,0.34-0.64,0.86-0.64,1.56v3.63l11.07,0.27
							v3.97l-11.07,0.27v3.46c0,0.59,0.11,1.05,0.32,1.38s0.5,0.55,0.87,0.68c0.37,0.12,0.75,0.19,1.15,0.19h10.54v4.21
							c-1.11,0.11-2.33,0.2-3.68,0.27c-1.35,0.07-2.71,0.12-4.08,0.17C324.63,43.05,323.33,43.07,322.1,43.07z"/>
						<path fill="#FFFFFF" d="M341.81,42.9l-6.69-25.12h5.78l4.49,17.72l5.25-17.72h5.14L361,35.5l4.49-17.72h5.78l-6.69,25.12h-5.7
							l-5.67-17.72l-5.7,17.72H341.81z"/>
						<path fill="#FFFFFF" d="M370.29,42.9l8.76-25.12h7.06l8.76,25.12h-5.82l-1.78-5.26h-9.52l-1.74,5.26H370.29z M379.09,33.13
							h6.87l-3.44-11.03L379.09,33.13z"/>
						<path fill="#FFFFFF" d="M401.56,42.9v-7.6l-8.42-17.52h5.82l5.51,12.39l5.48-12.39h5.59l-8.38,17.52v7.6H401.56z"/>
					</g>
				</g>
			</g>
		</g>
		<g>
			<image width="84" height="68" xlink:href="1B8409163246453.png"  transform="matrix(1 0 0 1 -0.5115 -0.9986)">
			</image>
		</g>
	</g>
</g>
</svg>
