<?xml version="1.0" encoding="utf-8"?>
<!-- Generator: Adobe Illustrator 25.1.0, SVG Export Plug-In . SVG Version: 6.00 Build 0)  -->
<svg version="1.1" xmlns="http://www.w3.org/2000/svg" xmlns:xlink="http://www.w3.org/1999/xlink" x="0px" y="0px"
	 viewBox="0 0 415.5 66" style="enable-background:new 0 0 415.5 66;" xml:space="preserve">
<style type="text/css">
	.st0{display:none;}
	.st1{display:inline;fill:#47B2E4;}
	.st2{display:inline;fill:#FFFFFF;}
	.st3{fill:#FFFFFF;}
	.st4{font-family:'OpenSans-Semibold';}
	.st5{font-size:11.5451px;}
	.st6{fill:url(#SVGID_1_);}
</style>
<g id="Livello_1" class="st0">
	<path class="st1" d="M17.9,35.2c0.5,0.7,1.1,1.2,1.9,1.5h2l1.6-1l0,0c1-1.2,1.1-3,0.1-4.3c-0.3-0.4-0.6-0.9-0.7-1.4
		c-0.4-0.3-0.6-0.9-0.6-1.4l0,0c0-0.1,0-0.1,0-0.2c-0.8-1.7-0.8-3.7,0-5.4l0,0c0.5-2.1,1.8-4,3.5-5.3c1.1-1.1,2.5-1.7,4-1.8
		c1.4-0.6,3-0.6,4.4,0c1.1,0,2.2,0.5,3,1.2l0,0l0.8,0.4l0,0c0.5,0.2,0.9,0.6,1.2,1.1l0,0c0.2,0.1,0.3,0.3,0.4,0.4
		c2.6,3.6,5.1,7.2,7.7,10.9c2.3,3.3,4.6,6.6,7,9.9c1,1.5,3,1.9,4.6,0.9c0.1,0,0.1-0.1,0.2-0.1c1.5-1.1,1.9-3.2,0.8-4.7
		c-0.1-0.1-0.1-0.2-0.2-0.2c-1-1.2-1.8-2.6-2.7-3.9c-3.6-5-7-10-10.5-15c-2.4-3.3-3.1-6.7-1.5-10.6c1.3-3.3,4.4-5.7,7.9-6
		c3.6-0.6,7.3,0.9,9.4,3.9c2.5,3.4,4.9,7,7.4,10.5l13,18.6c3.7,5.3,7.4,10.6,11.1,15.8c1.9,2.6,3.6,5.3,3.1,8.7
		c-0.3,3.6-2.6,6.8-5.9,8.2c-2.6,1.3-5.6,1.3-8.2,0l0,0l-1.1-0.6c-0.6-0.1-1.1-0.5-1.4-1l0,0c-0.2-0.2-0.4-0.3-0.6-0.5
		c-1.3-1.5-2.5-3.1-3.5-4.8c-2.8-4-5.6-7.9-8.4-11.9c-1.2-1.5-3.3-1.9-4.9-0.7c-1.4,1.1-1.7,3.2-0.7,4.7c0.8,1.1,1.3,2.4,1.6,3.7
		c1,4.5-1.8,9.9-5.9,11.2c-0.5,0.5-1.1,0.7-1.8,0.6c-1.4,0.5-2.9,0.5-4.2,0h-0.1h-0.1c-0.7,0.1-1.3-0.1-1.8-0.6l0,0
		c-1.8-0.7-3.3-2-4.3-3.6c-0.9-0.9-1.6-2-2.2-3.2l0,0l-0.6-0.8l0,0c-0.6-0.4-1-1-1.2-1.7l0,0c-1-1.4-2-2.7-2.9-4.1
		c-2.4-3.4-4.7-6.8-7.1-10.1c-0.8-1.2-2.4-1.7-3.7-1.1c-1.7,0.6-2.3,1.7-2.3,3.9c0.5,0.7,0.9,1.4,1.2,2.2c0.5,0.4,1,1,1.2,1.6l0,0
		c0.4,0.6,0.8,1.2,1.2,1.8c3.3,4.5,2.3,10.7-2.2,14c-0.6,0.5-1.3,0.8-2,1.2c-0.5,0.5-1.1,0.7-1.8,0.6c-1.4,0.5-2.9,0.5-4.2,0h-0.1
		h-0.1c-0.7,0.1-1.3-0.1-1.8-0.6l0,0c-1.8-0.7-3.4-2-4.4-3.6c-3.6-5-7.1-10-10.6-15.1c-2.5-3.2-2.7-7.6-0.6-11
		c2.8-4.9,8.9-6.6,13.8-3.8C16,33.1,17,34,17.9,35.2z"/>
	<path class="st2" d="M129.5,33.9c-0.1,2,0.7,4,2.2,5.5c1.4,1.3,3.3,2.1,5.3,2c1.7,0,3.3-0.4,4.8-1.1c1.4-0.7,2.5-1.7,3.3-3v7.5
		c-1,0.9-2.2,1.6-3.5,1.9c-1.6,0.5-3.3,0.7-5,0.7c-2.6,0-5.1-0.5-7.4-1.7c-2.1-1.1-3.9-2.7-5.1-4.7c-1.3-2.1-1.9-4.6-1.9-7.1
		c-0.1-2.5,0.6-4.9,1.9-7.1c1.2-2,3-3.7,5.1-4.7c3.9-1.9,8.3-2.2,12.4-1c1.3,0.4,2.5,1,3.5,1.8v7.5c-0.8-1.3-2-2.4-3.3-3
		c-1.5-0.7-3.1-1.1-4.7-1.1c-2,0-3.9,0.7-5.3,2.1C130.2,29.9,129.4,31.9,129.5,33.9z"/>
	<path class="st2" d="M149.6,33.9c-0.1-2.5,0.6-4.9,1.9-7.1c1.2-2,3-3.6,5.1-4.7c4.6-2.3,10-2.3,14.7,0c2.1,1.1,3.9,2.7,5.1,4.7
		c1.3,2.1,1.9,4.6,1.9,7.1c0,2.5-0.6,4.9-1.9,7.1c-1.2,2-3,3.7-5.1,4.7c-4.6,2.3-10,2.3-14.7,0c-2.1-1.1-3.9-2.7-5.1-4.7
		C150.2,38.8,149.6,36.4,149.6,33.9z M157.1,33.9c-0.1,2,0.6,3.9,2,5.3c1.3,1.3,3,2,4.9,2c1.8,0,3.6-0.7,4.9-2
		c1.4-1.4,2.1-3.3,2-5.3c0.1-2-0.6-3.9-2-5.3c-1.3-1.3-3.1-2.1-4.9-2c-1.8,0-3.6,0.7-4.9,2C157.8,30,157,31.9,157.1,33.9L157.1,33.9
		z"/>
	<path class="st2" d="M182,33.9c-0.1-2.6,0.5-5.1,1.7-7.3c1.1-1.9,2.7-3.5,4.6-4.6c1.9-1,4-1.6,6.1-1.6c3.6-0.1,6.9,1.7,8.8,4.7V3
		h7.3v43.8h-7.3v-4.2c-1.9,3-5.2,4.8-8.8,4.7c-2.1,0-4.2-0.5-6.1-1.6c-1.9-1.1-3.5-2.6-4.6-4.6C182.5,39,181.9,36.5,182,33.9z
		 M189.6,33.9c-0.1,2,0.6,4,2,5.5c1.3,1.3,3.1,2.1,4.9,2c1.1,0,2.2-0.3,3.1-0.9c1-0.6,1.9-1.5,2.5-2.5c0.7-1.2,1.1-2.6,1-4
		c0-1.4-0.3-2.8-1-4c-0.6-1-1.5-1.9-2.5-2.5c-0.9-0.6-2-0.9-3.1-0.9c-1.8,0-3.6,0.7-4.9,2C190.3,30,189.5,31.9,189.6,33.9z"/>
	<path class="st2" d="M232.3,28.6c-0.4-0.4-0.9-0.8-1.5-1.1c-0.6-0.3-1.2-0.4-1.8-0.4c-1.3-0.1-2.5,0.5-3.1,1.6
		c-0.8,1.3-1.1,2.9-1.1,4.4v13.7h-7.2V21h7.2v3.1c0.7-1.1,1.7-2,2.8-2.7c1-0.7,2.2-1,3.4-1c0.9,0,1.8,0.2,2.7,0.5
		c0.8,0.3,1.5,0.8,2,1.5L232.3,28.6z"/>
	<path class="st2" d="M236.9,33.9c-0.1-2.5,0.6-4.9,1.9-7.1c1.2-2,3-3.6,5.1-4.7c4.6-2.3,10-2.3,14.7,0c2.1,1.1,3.9,2.7,5.1,4.7
		c1.3,2.1,1.9,4.6,1.8,7.1c0,2.5-0.6,4.9-1.9,7.1c-1.2,2-3,3.7-5.1,4.7c-4.6,2.3-10,2.3-14.7,0c-2.1-1.1-3.9-2.7-5.1-4.7
		C237.5,38.8,236.9,36.4,236.9,33.9z M244.4,33.9c-0.1,2,0.6,3.9,2,5.3c1.3,1.3,3,2,4.9,2c1.8,0,3.6-0.7,4.9-2
		c1.4-1.4,2.1-3.3,2-5.3c0.1-2-0.6-3.9-2-5.3c-1.3-1.3-3.1-2.1-4.9-2c-1.8,0-3.6,0.7-4.9,2C245,30,244.3,31.9,244.4,33.9L244.4,33.9
		z"/>
	<path class="st2" d="M278.2,59.2h-7.3V21h7.3v4.3c0.9-1.5,2.1-2.8,3.6-3.7c1.6-0.9,3.4-1.4,5.2-1.3c2.1,0,4.2,0.5,6.1,1.6
		c1.9,1.1,3.5,2.7,4.6,4.6c1.2,2.3,1.9,4.9,1.8,7.5c0.1,2.6-0.5,5.2-1.8,7.5c-1.1,1.9-2.7,3.5-4.6,4.6c-1.9,1-4,1.6-6.1,1.6
		c-1.8,0-3.6-0.4-5.2-1.3c-1.5-0.9-2.8-2.2-3.6-3.7L278.2,59.2L278.2,59.2z M291.9,33.9c0.1-2-0.6-4-2.1-5.3c-1.4-1.2-3.2-1.9-5-1.8
		c-1.1,0-2.1,0.3-3,0.8c-1,0.6-1.9,1.4-2.5,2.4c-0.7,1.2-1.1,2.6-1,4c0,1.4,0.3,2.8,1,4c0.6,1,1.5,1.8,2.5,2.4c1,0.5,2,0.8,3.1,0.8
		c1.8,0,3.6-0.6,5-1.9C291.3,37.8,292,35.9,291.9,33.9L291.9,33.9z"/>
</g>
<g id="Layer_2">
	<g>
		<g>
			<text transform="matrix(1.0728 0 0 1 99.4778 55.7074)" class="st3 st4 st5">Solving issues with innovation.</text>
		</g>
		<g>
			<g>
				<g>
					<g>
						<path class="st3" d="M97.8,42.9l8.8-25.1h7.1l8.8,25.1h-5.8l-1.8-5.3h-9.5l-1.7,5.3H97.8z M106.6,33.1h6.9l-3.4-11L106.6,33.1
							z"/>
						<path class="st3" d="M124.5,42.9V17.8h11.6c1.1,0,2.1,0.1,3.1,0.4c1,0.2,1.8,0.7,2.5,1.2s1.3,1.4,1.7,2.4c0.4,1,0.6,2.4,0.6,4
							c0,1.2-0.1,2.1-0.4,3c-0.3,0.8-0.6,1.5-1,2c-0.4,0.5-0.9,0.9-1.4,1.3c-0.5,0.3-1.1,0.6-1.6,0.8l5.2,10.1h-5.7l-4.5-9.3
							c-0.3,0-0.6,0-1,0c-0.4,0-0.8,0-1.2,0s-0.8,0-1.2,0c-0.4,0-0.8,0-1.1,0v9.4H124.5z M130.1,29.6h5c0.5,0,1-0.1,1.4-0.2
							c0.4-0.1,0.8-0.3,1.1-0.6c0.3-0.3,0.5-0.7,0.7-1.1c0.2-0.5,0.2-1.1,0.2-1.8c0-0.7-0.1-1.3-0.2-1.7c-0.2-0.5-0.4-0.8-0.7-1.1
							c-0.3-0.3-0.7-0.4-1.1-0.5c-0.4-0.1-0.9-0.2-1.4-0.2h-5V29.6z"/>
						<path class="st3" d="M156.7,43.1c-1.6,0-3.1-0.2-4.3-0.5c-1.2-0.3-2.3-1-3.2-1.9c-0.9-0.9-1.5-2.2-2-3.9s-0.7-3.9-0.7-6.6
							c0-2.6,0.2-4.7,0.7-6.4c0.5-1.7,1.1-3,2-3.9c0.9-0.9,2-1.6,3.2-1.9c1.3-0.4,2.7-0.5,4.3-0.5c1.3,0,2.4,0.1,3.5,0.2
							c1.1,0.1,2.1,0.3,3,0.4c0.9,0.2,1.6,0.4,2.2,0.6v3.9c-0.5-0.1-1.1-0.2-1.8-0.3c-0.8-0.1-1.6-0.2-2.6-0.2c-1-0.1-2-0.1-3.1-0.1
							c-1.1,0-2,0.1-2.7,0.3c-0.7,0.2-1.3,0.6-1.8,1.2c-0.4,0.6-0.8,1.4-1,2.5c-0.2,1.1-0.3,2.5-0.3,4.2c0,1.7,0.1,3.1,0.3,4.1
							c0.2,1.1,0.5,1.9,0.9,2.5c0.4,0.6,1,1,1.8,1.3c0.7,0.2,1.7,0.4,2.8,0.4c1.9,0,3.5,0,4.7-0.1c1.2-0.1,2.2-0.1,2.9-0.2v3.9
							c-0.7,0.2-1.5,0.4-2.3,0.5c-0.9,0.1-1.9,0.3-2.9,0.3C159.2,43.1,158,43.1,156.7,43.1z"/>
						<path class="st3" d="M168.5,42.9V17.8h5.6v10.5h10.5V17.8h5.6v25.1h-5.6V32.8H174v10.1H168.5z"/>
						<path class="st3" d="M200.9,43.1c-0.6,0-1.3-0.1-2.1-0.2c-0.8-0.1-1.5-0.3-2.2-0.7c-0.7-0.4-1.3-0.9-1.8-1.6
							c-0.5-0.7-0.7-1.7-0.7-3v-14c0-1.1,0.2-2,0.6-2.8c0.4-0.7,0.9-1.3,1.5-1.8c0.6-0.4,1.3-0.7,2.1-0.9c0.8-0.2,1.5-0.3,2.2-0.3
							c1.9,0,3.6,0,5,0.1c1.4,0,2.8,0.1,3.9,0.2c1.2,0.1,2.2,0.1,3.2,0.2v4.2h-10.4c-0.8,0-1.4,0.2-1.8,0.5
							c-0.4,0.3-0.6,0.9-0.6,1.6v3.6l11.1,0.3v4l-11.1,0.3v3.5c0,0.6,0.1,1,0.3,1.4s0.5,0.6,0.9,0.7c0.4,0.1,0.7,0.2,1.2,0.2h10.5
							v4.2c-1.1,0.1-2.3,0.2-3.7,0.3c-1.3,0.1-2.7,0.1-4.1,0.2C203.4,43.1,202.1,43.1,200.9,43.1z"/>
						<path class="st3" d="M215.7,42.9V17.8h11.6c1.1,0,2.1,0.1,3.1,0.4c1,0.2,1.8,0.7,2.5,1.2s1.3,1.4,1.7,2.4c0.4,1,0.6,2.4,0.6,4
							c0,1.2-0.1,2.1-0.4,3c-0.3,0.8-0.6,1.5-1,2c-0.4,0.5-0.9,0.9-1.4,1.3c-0.5,0.3-1.1,0.6-1.6,0.8l5.2,10.1h-5.7l-4.5-9.3
							c-0.3,0-0.6,0-1,0c-0.4,0-0.8,0-1.2,0s-0.8,0-1.2,0c-0.4,0-0.8,0-1.1,0v9.4H215.7z M221.3,29.6h5c0.5,0,1-0.1,1.4-0.2
							c0.4-0.1,0.8-0.3,1.1-0.6c0.3-0.3,0.5-0.7,0.7-1.1c0.2-0.5,0.2-1.1,0.2-1.8c0-0.7-0.1-1.3-0.2-1.7c-0.2-0.5-0.4-0.8-0.7-1.1
							c-0.3-0.3-0.7-0.4-1.1-0.5c-0.4-0.1-0.9-0.2-1.4-0.2h-5V29.6z"/>
						<path class="st3" d="M255.1,43.1c-1.8,0-3.2-0.3-4.3-0.9c-1.1-0.6-2-1.5-2.6-2.6c-0.6-1.1-1.1-2.5-1.3-4s-0.4-3.3-0.4-5.2
							c0-2,0.1-3.8,0.4-5.4c0.3-1.6,0.8-2.9,1.5-4c0.7-1.1,1.8-1.9,3.1-2.5c1.3-0.6,3.1-0.9,5.2-0.9c1.3,0,2.5,0,3.5,0.1
							c1.1,0.1,2.1,0.2,3,0.4c1,0.2,1.9,0.4,2.9,0.6v3.9c-0.5-0.1-1.2-0.1-2.1-0.2c-0.9-0.1-1.9-0.1-2.9-0.2
							c-1.1-0.1-2.2-0.1-3.4-0.1c-1.6,0-2.8,0.3-3.6,0.8c-0.8,0.5-1.4,1.4-1.7,2.6c-0.3,1.2-0.5,2.9-0.5,5c0,1.6,0.1,3,0.2,4
							c0.2,1,0.4,1.9,0.8,2.5s0.9,1,1.5,1.3c0.6,0.2,1.4,0.4,2.3,0.4c1,0,2-0.1,3-0.2c0.9-0.2,1.7-0.3,2.3-0.5v-4.9h-5v-4
							c0.5-0.1,1.2-0.1,1.9-0.2c0.7,0,1.5-0.1,2.3-0.1c0.8,0,1.6-0.1,2.3-0.1c0.8,0,1.5,0,2.2,0c0.6,0,1.2,0,1.8,0.1v14.3h-4.2
							l-0.8-1.7c-0.7,0.4-1.8,0.8-3.1,1.2C258.1,42.9,256.7,43.1,255.1,43.1z"/>
						<path class="st3" d="M269.6,42.9l8.8-25.1h7.1l8.8,25.1h-5.8l-1.8-5.3h-9.5l-1.7,5.3H269.6z M278.4,33.1h6.9l-3.4-11
							L278.4,33.1z"/>
						<path class="st3" d="M302.2,42.9V22.3h-7.7v-4.5h21v4.5h-7.7v20.6H302.2z"/>
						<path class="st3" d="M324.4,43.1c-0.6,0-1.3-0.1-2.1-0.2c-0.8-0.1-1.5-0.3-2.2-0.7c-0.7-0.4-1.3-0.9-1.8-1.6
							c-0.5-0.7-0.7-1.7-0.7-3v-14c0-1.1,0.2-2,0.6-2.8c0.4-0.7,0.9-1.3,1.5-1.8c0.6-0.4,1.3-0.7,2.1-0.9c0.8-0.2,1.5-0.3,2.2-0.3
							c1.9,0,3.6,0,5,0.1c1.4,0,2.8,0.1,3.9,0.2c1.2,0.1,2.2,0.1,3.2,0.2v4.2h-10.4c-0.8,0-1.4,0.2-1.8,0.5
							c-0.4,0.3-0.6,0.9-0.6,1.6v3.6l11.1,0.3v4l-11.1,0.3v3.5c0,0.6,0.1,1,0.3,1.4s0.5,0.6,0.9,0.7c0.4,0.1,0.7,0.2,1.2,0.2H336
							v4.2c-1.1,0.1-2.3,0.2-3.7,0.3c-1.3,0.1-2.7,0.1-4.1,0.2C326.9,43.1,325.6,43.1,324.4,43.1z"/>
						<path class="st3" d="M344.1,42.9l-6.7-25.1h5.8l4.5,17.7l5.2-17.7h5.1l5.2,17.7l4.5-17.7h5.8l-6.7,25.1h-5.7l-5.7-17.7
							l-5.7,17.7H344.1z"/>
						<path class="st3" d="M373.9,42.9l8.8-25.1h7.1l8.8,25.1h-5.8l-1.8-5.3h-9.5l-1.7,5.3H373.9z M382.7,33.1h6.9l-3.4-11
							L382.7,33.1z"/>
						<path class="st3" d="M407.2,42.9v-7.6l-8.4-17.5h5.8l5.5,12.4l5.5-12.4h5.6l-8.4,17.5v7.6H407.2z"/>
					</g>
				</g>
			</g>
		</g>
		<g>
			<linearGradient id="SVGID_1_" gradientUnits="userSpaceOnUse" x1="22.7792" y1="61.0799" x2="82.6235" y2="16.1966">
				<stop  offset="0" style="stop-color:#00A551"/>
				<stop  offset="1" style="stop-color:#00ADEE"/>
			</linearGradient>
			<path class="st6" d="M41.7,16.2c-5.1,3-15.2,9.5-24.1,18.9c-1.8-1.3-3.8-2.6-5.9-3.7c4.6-5.2,14.8-15.1,29.9-23
				c15.1,7.9,25.3,17.8,29.9,23c-2.1,1.2-4.1,2.4-5.9,3.7C56.9,25.7,46.8,19.2,41.7,16.2L41.7,16.2z M41.7,0C25,7.9,11,19.6,0,34.2
				c12.3,4.7,21.8,12.5,28,24.4H10.9c1.5-4,3.7-7.7,6.1-11.2c-2-2.2-4.1-3.6-5.7-4.8C6,49.9,3.2,57.3,0.9,66h38
				c-3.4-10-7.8-18.6-15.7-26.2c6.3-6.7,13.4-11.8,18.4-15c5,3.2,12.1,8.3,18.4,15C52.2,47.5,47.8,56,44.4,66h38
				c-2.3-8.7-5.1-16.2-10.4-23.4c-1.6,1.1-3.7,2.6-5.7,4.8c2.4,3.4,4.6,7.2,6.1,11.2H55.3c6.2-11.9,15.7-19.6,28-24.4
				C72.4,19.6,58.3,7.9,41.7,0L41.7,0z"/>
		</g>
	</g>
</g>
</svg>
